<?xml version="1.0" standalone="no"?>
<!DOCTYPE svg PUBLIC "-//W3C//DTD SVG 20010904//EN"
 "http://www.w3.org/TR/2001/REC-SVG-20010904/DTD/svg10.dtd">
<svg version="1.0" xmlns="http://www.w3.org/2000/svg"
 width="1280.000000pt" height="720.000000pt" viewBox="0 0 1280.000000 720.000000"
 preserveAspectRatio="xMidYMid meet">
<metadata>
Created by potrace 1.16, written by Peter Selinger 2001-2019
</metadata>
<g transform="translate(0.000000,720.000000) scale(0.100000,-0.100000)"
fill="#000000" stroke="none">
<path d="M2275 4754 c-137 -80 -253 -151 -257 -157 -10 -15 -10 -1698 0 -1713
4 -7 111 -71 237 -144 127 -73 350 -202 496 -286 147 -85 273 -154 280 -154 8
0 131 68 274 151 143 83 289 167 325 187 36 20 144 82 240 138 l175 102 5 283
5 283 230 132 c126 72 235 137 242 143 10 9 13 82 13 306 l0 294 -27 19 c-59
42 -487 282 -502 282 -9 0 -128 -65 -266 -144 l-250 -143 -5 -284 -5 -283
-205 -117 c-113 -65 -207 -116 -209 -114 -2 3 -3 237 -3 522 1 285 -1 526 -4
535 -5 17 -501 308 -525 308 -8 0 -126 -66 -264 -146z m471 -51 c156 -90 201
-120 191 -129 -21 -19 -383 -224 -396 -224 -13 0 -378 205 -398 224 -10 8 36
39 190 128 111 64 203 117 205 118 2 0 95 -53 208 -117z m1472 -280 c188 -106
203 -117 186 -130 -10 -8 -102 -61 -202 -119 -117 -67 -190 -103 -200 -99 -44
16 -392 220 -392 229 1 9 383 235 399 236 2 0 96 -52 209 -117z m-1922 -26
l199 -114 5 -561 c3 -355 9 -564 15 -570 6 -5 109 -64 230 -132 121 -67 226
-127 233 -133 9 -7 12 -68 12 -244 0 -201 -2 -234 -14 -230 -8 3 -91 50 -183
103 -92 54 -287 166 -433 250 l-265 152 -3 796 c-1 438 0 796 2 796 2 0 93
-51 202 -113z m692 -403 l-3 -516 -190 -110 c-104 -61 -196 -113 -202 -115
-10 -4 -13 102 -13 510 l0 515 198 115 c108 63 200 115 205 116 4 1 6 -231 5
-515z m782 123 l195 -113 3 -238 2 -239 -22 15 c-13 8 -105 61 -205 118 l-183
103 0 234 c0 128 3 233 8 233 4 0 95 -51 202 -113z m690 -121 l0 -234 -172
-98 c-95 -54 -188 -106 -206 -117 l-32 -19 2 237 3 237 195 114 c107 62 198
114 203 114 4 0 7 -105 7 -234z m-736 -413 c104 -59 191 -113 193 -119 4 -11
-865 -514 -887 -514 -14 0 -400 221 -400 230 0 3 125 78 277 166 152 87 351
202 442 256 91 53 171 95 176 93 6 -2 95 -52 199 -112z m244 -429 l-3 -236
-255 -147 c-140 -81 -339 -196 -443 -256 -103 -59 -189 -106 -192 -104 -2 3
-5 108 -6 233 -1 224 -1 229 20 246 12 9 136 80 274 158 139 78 329 186 422
241 94 55 173 100 178 100 4 1 6 -105 5 -235z"/>
<path d="M5040 3555 l0 -685 322 2 323 3 0 88 c0 49 -4 91 -9 95 -5 3 -101 5
-213 4 l-203 -2 0 590 0 590 -110 0 -110 0 0 -685z"/>
<path d="M10590 3555 l0 -685 105 0 105 0 0 685 0 685 -105 0 -105 0 0 -685z"/>
<path d="M6060 3782 c-76 -26 -107 -43 -164 -93 -233 -206 -205 -603 55 -770
100 -64 260 -89 356 -56 60 21 131 64 149 92 25 38 34 30 34 -30 l0 -55 105 0
105 0 0 455 0 455 -105 0 -105 0 0 -55 c0 -30 -3 -55 -6 -55 -3 0 -17 13 -30
30 -14 16 -55 44 -91 62 -57 28 -78 33 -157 35 -68 2 -105 -2 -146 -15z m246
-179 c70 -24 147 -103 168 -173 57 -193 -53 -381 -233 -397 -114 -11 -215 48
-268 155 -23 48 -28 70 -28 137 0 67 5 89 28 137 64 130 198 187 333 141z"/>
<path d="M7828 3790 c-68 -17 -160 -71 -210 -122 -144 -148 -178 -385 -83
-570 76 -150 231 -248 394 -249 112 -1 182 24 257 93 l44 41 0 -57 0 -56 105
0 105 0 0 455 0 455 -105 0 -105 0 0 -57 0 -57 -37 36 c-21 20 -63 49 -93 64
-46 23 -70 28 -145 31 -49 1 -107 -2 -127 -7z m264 -207 c58 -32 110 -99 128
-161 5 -20 10 -64 10 -97 0 -78 -13 -122 -53 -182 -44 -65 -135 -113 -215
-113 -154 0 -272 129 -272 295 0 135 77 246 199 286 51 17 147 3 203 -28z"/>
<path d="M9870 3786 c-121 -32 -240 -130 -293 -240 -40 -81 -60 -186 -52 -266
29 -273 208 -430 490 -431 100 0 165 16 237 58 53 31 158 119 158 133 0 4 -29
32 -65 60 l-65 52 -44 -40 c-24 -23 -68 -53 -98 -69 -46 -24 -64 -28 -138 -28
-68 0 -93 5 -125 22 -50 27 -97 75 -125 130 -42 82 -61 77 341 83 l356 5 -3
75 c-1 41 -5 84 -7 95 -16 67 -22 84 -40 120 -56 114 -154 201 -269 237 -69
21 -189 23 -258 4z m224 -166 c78 -30 155 -127 156 -197 l0 -23 -260 0 c-298
0 -280 -8 -231 96 59 126 195 176 335 124z"/>
<path d="M6878 3325 l2 -455 100 0 100 0 0 350 0 350 185 0 185 0 0 105 0 105
-287 0 -288 0 3 -455z"/>
<path d="M8566 3758 c6 -23 181 -483 285 -751 l53 -138 134 3 134 3 20 55 c20
54 267 696 307 798 l21 53 -107 -3 -106 -3 -133 -344 c-74 -189 -135 -346
-137 -348 -4 -3 -70 163 -195 495 l-76 202 -104 0 c-103 0 -103 0 -96 -22z"/>
</g>
</svg>
