<?xml version="1.0" standalone="no"?>
<!DOCTYPE svg PUBLIC "-//W3C//DTD SVG 20010904//EN"
 "http://www.w3.org/TR/2001/REC-SVG-20010904/DTD/svg10.dtd">
<svg version="1.0" xmlns="http://www.w3.org/2000/svg"
 width="65.000000pt" height="66.000000pt" viewBox="0 0 65.000000 66.000000"
 preserveAspectRatio="xMidYMid meet">
<metadata>
Created by potrace 1.16, written by Peter Selinger 2001-2019
</metadata>
<g transform="translate(0.000000,66.000000) scale(0.009286,-0.012992)"
fill="#000000" stroke="none">
<path d="M1130 4870 c-184 -16 -400 -33 -480 -39 -302 -24 -486 -42 -518 -53
-39 -12 -72 -59 -72 -104 0 -37 37 -146 79 -234 30 -63 160 -347 381 -830 59
-129 168 -365 242 -525 75 -159 167 -360 206 -445 38 -85 151 -328 249 -540
99 -212 206 -443 238 -515 72 -158 91 -190 143 -237 86 -78 181 -78 474 -4
295 76 709 183 928 241 269 70 301 78 309 69 5 -5 88 -153 186 -329 302 -544
480 -857 558 -978 81 -128 158 -177 251 -161 62 10 329 96 526 169 36 13 137
49 225 81 88 31 210 74 270 96 61 22 146 52 190 68 108 37 438 156 500 180 28
10 114 41 193 70 79 28 160 57 180 65 20 8 107 39 192 71 178 65 220 90 220
135 0 17 -5 40 -11 52 -17 32 -195 274 -716 971 -73 98 -131 181 -129 183 2 3
53 17 113 33 151 38 514 135 658 175 66 18 132 35 146 39 40 9 79 44 79 71 0
15 -24 53 -60 97 -33 40 -73 89 -88 108 -637 797 -716 891 -763 915 -47 25
-124 18 -526 -51 -214 -36 -430 -72 -482 -79 -172 -27 -214 -47 -214 -103 0
-29 24 -69 131 -217 201 -279 561 -800 555 -806 -5 -4 -78 -23 -163 -43 -85
-20 -209 -50 -275 -66 -66 -16 -394 -95 -730 -175 -335 -80 -668 -160 -739
-177 -107 -26 -130 -29 -137 -17 -12 19 -421 701 -727 1214 -135 226 -270 451
-300 500 -30 50 -62 104 -72 120 -9 17 -91 154 -182 305 -90 151 -210 352
-265 445 -126 213 -152 247 -196 268 -49 24 -170 21 -577 -13z m545 -367 c59
-104 123 -213 141 -243 17 -30 79 -136 136 -235 58 -99 173 -299 258 -445 84
-146 194 -335 243 -420 49 -85 106 -184 127 -220 21 -36 70 -121 110 -190 131
-227 153 -265 180 -310 15 -25 63 -108 107 -185 45 -77 101 -176 127 -220 36
-64 43 -82 32 -90 -7 -6 -65 -22 -127 -37 -63 -15 -321 -77 -574 -137 -602
-144 -597 -143 -606 -134 -4 5 -144 289 -310 633 -395 819 -417 865 -549 1135
-61 127 -196 403 -298 615 -103 212 -205 423 -228 470 -23 47 -38 89 -34 93 4
5 88 15 186 23 99 7 328 27 509 44 182 16 350 31 375 33 25 2 54 4 66 5 17 2
40 -31 129 -185z m4358 -1005 c56 -73 133 -172 410 -523 86 -109 144 -192 139
-197 -10 -10 -757 -197 -803 -200 -31 -3 -38 6 -211 242 -365 501 -428 589
-428 599 0 11 5 12 175 42 158 27 556 99 575 103 8 2 31 4 51 5 34 1 40 -4 92
-71z m-144 -1495 c110 -153 273 -377 361 -497 88 -121 160 -225 160 -232 0
-14 -9 -17 -195 -80 -204 -68 -1087 -368 -1682 -570 l-202 -69 -26 25 c-14 13
-43 54 -64 90 -21 36 -140 241 -265 455 -126 215 -246 422 -269 460 -22 39
-53 91 -68 116 l-27 46 127 32 c133 33 297 75 522 135 141 36 1000 260 1239
322 74 20 137 37 139 40 2 2 14 4 26 4 18 0 65 -59 224 -277z"/>
</g>
</svg>
