<?xml version="1.0" standalone="no"?>
<!DOCTYPE svg PUBLIC "-//W3C//DTD SVG 20010904//EN"
 "http://www.w3.org/TR/2001/REC-SVG-20010904/DTD/svg10.dtd">
<svg version="1.0" xmlns="http://www.w3.org/2000/svg"
 width="389.000000pt" height="346.000000pt" viewBox="0 0 389.000000 346.000000"
 preserveAspectRatio="xMidYMid meet">

<g transform="translate(0.000000,346.000000) scale(0.100000,-0.100000)"
fill="#000000" stroke="none">
<path d="M1917 2503 c-60 -87 -77 -170 -53 -264 14 -55 70 -159 86 -159 11 0
69 97 81 135 16 49 15 159 0 200 -14 34 -73 125 -82 125 -4 0 -18 -17 -32 -37z"/>
<path d="M1384 2365 c-16 -89 17 -194 86 -269 46 -49 138 -102 153 -87 5 5 8
47 5 93 -4 63 -11 95 -31 134 -36 72 -111 136 -184 158 -19 6 -23 2 -29 -29z"/>
<path d="M2444 2361 c-103 -47 -171 -149 -181 -269 -2 -37 -1 -77 4 -90 l9
-22 51 26 c68 33 147 119 168 183 17 53 18 182 0 187 -5 2 -29 -5 -51 -15z"/>
<path d="M985 2000 c-9 -15 54 -128 89 -157 61 -52 134 -78 218 -78 42 0 79 3
83 7 12 12 -46 110 -91 153 -58 57 -133 85 -224 85 -38 0 -72 -4 -75 -10z"/>
<path d="M2708 1964 c-61 -19 -149 -99 -182 -166 -24 -47 -24 -53 -10 -61 27
-15 155 -2 205 20 65 29 124 86 155 150 23 45 25 56 13 64 -21 13 -128 9 -181
-7z"/>
<path d="M1457 1483 c-4 -3 -7 -30 -7 -58 0 -203 109 -385 281 -468 41 -20 85
-39 98 -42 23 -7 24 -7 16 51 -25 203 -154 413 -303 492 -62 33 -74 37 -85 25z"/>
<path d="M2370 1467 c-74 -36 -190 -160 -238 -253 -40 -79 -82 -219 -82 -277
0 -34 10 -33 118 20 157 75 261 231 278 414 7 74 0 119 -19 119 -6 0 -32 -10
-57 -23z"/>
</g>
</svg>
